<?xml version="1.0" encoding="UTF-8"?>
<!--
  O Guardiao Sobrio — Simbolo Escudo v4 (preta)
  Mesma geometria da versao ouro. Fundo transparente, cor #0a0a0a.
-->
<svg xmlns="http://www.w3.org/2000/svg"
     viewBox="0 0 100 100"
     width="100" height="100"
     role="img"
     aria-label="O Guardiao Sobrio — Simbolo Escudo (preto)">

  <path
    fill-rule="evenodd"
    fill="#0a0a0a"
    stroke="none"
    d="
      M 26,8 L 74,8
      Q 77,8 77,11
      L 77,50
      C 77,74 62,88 50,90
      C 38,88 23,74 23,50
      L 23,11
      Q 23,8 26,8 Z

      M 31,14 L 69,14
      Q 71,14 71,16
      L 71,47
      C 71,67 59,82 50,84
      C 41,82 29,67 29,47
      L 29,16
      Q 29,14 31,14 Z
    "
  />

  <circle cx="50" cy="30" r="16" fill="none" stroke="#0a0a0a" stroke-width="2"/>
  <line x1="50" y1="14" x2="50" y2="46" stroke="#0a0a0a" stroke-width="1.5" stroke-linecap="square"/>

</svg>
